<svg width="430" height="430" viewBox="0 0 430 430" fill="none" xmlns="http://www.w3.org/2000/svg">
<path d="M215 0L6.10352e-05 215L215 430L430 215L215 0Z" fill="#99E2FF"/>
<path d="M214.486 346.5L82.8946 214.909L214.925 83.2579L346.41 215.075L214.486 346.5Z" fill="#E6F8FF"/>
<path d="M41.5759 173.59L214.486 346.5L346.41 215.075M387.91 173.076L346.41 215.075M346.41 215.075L214.925 83.2579M173.5 42.1649L214.925 83.2579M41.5917 256.093L214.925 83.2579" stroke="#002533" stroke-width="3"/>
<path d="M203.738 253.234H227.645V284.699H203.738V253.234Z" fill="#2CC4FE"/>
<path d="M228.348 285.402H203.035V252.531H228.348V285.402ZM204.441 283.996H226.941V253.937H204.441V283.996Z" fill="#515151"/>
<path d="M278.445 255.709H151.18C149.238 255.709 147.664 254.135 147.664 252.193V169.224C147.664 167.283 149.238 165.709 151.18 165.709H278.445C280.387 165.709 281.961 167.283 281.961 169.224V252.193C281.961 254.135 280.387 255.709 278.445 255.709Z" fill="#2CC4FE"/>
<path d="M278.445 256.412H151.18C148.854 256.412 146.961 254.519 146.961 252.193V169.224C146.961 166.898 148.854 165.006 151.18 165.006H278.445C280.772 165.006 282.664 166.898 282.664 169.224V252.193C282.664 254.519 280.772 256.412 278.445 256.412ZM151.18 166.412C149.629 166.412 148.367 167.674 148.367 169.224V252.193C148.367 253.744 149.629 255.006 151.18 255.006H278.445C279.996 255.006 281.258 253.744 281.258 252.193V169.224C281.258 167.674 279.996 166.412 278.445 166.412H151.18Z" fill="#515151"/>
<path d="M281.27 242.16H148.379V169.306C148.379 167.707 149.674 166.412 151.273 166.412H278.376C279.974 166.412 281.27 167.707 281.27 169.306V242.16Z" fill="#A1E4FD"/>
<path d="M249.277 285.402H181.953C181.767 285.402 181.588 285.328 181.456 285.196C181.324 285.065 181.25 284.886 181.25 284.699C181.25 284.513 181.324 284.334 181.456 284.202C181.588 284.07 181.767 283.996 181.953 283.996H249.277C249.464 283.996 249.643 284.07 249.775 284.202C249.906 284.334 249.98 284.513 249.98 284.699C249.98 284.886 249.906 285.065 249.775 285.196C249.643 285.328 249.464 285.402 249.277 285.402Z" fill="#515151"/>
<path d="M156.157 194.556L171.449 179.263Z" fill="#2CC4FE"/>
<path d="M156.157 195.259C156.018 195.259 155.882 195.218 155.766 195.14C155.651 195.063 155.561 194.953 155.507 194.825C155.454 194.696 155.44 194.555 155.467 194.419C155.494 194.282 155.561 194.157 155.66 194.058L170.952 178.766C171.084 178.634 171.263 178.56 171.449 178.56C171.636 178.56 171.814 178.634 171.946 178.766C172.078 178.898 172.152 179.077 172.152 179.263C172.152 179.45 172.078 179.629 171.946 179.761L156.654 195.053C156.589 195.118 156.511 195.17 156.426 195.205C156.341 195.241 156.249 195.259 156.157 195.259Z" fill="#D7F9FF"/>
<path d="M156.157 206.947L182.897 180.207Z" fill="#2CC4FE"/>
<path d="M156.157 207.651C156.018 207.651 155.882 207.609 155.766 207.532C155.651 207.455 155.561 207.345 155.507 207.217C155.454 207.088 155.44 206.947 155.467 206.81C155.494 206.674 155.561 206.549 155.66 206.45L182.4 179.71C182.532 179.578 182.711 179.504 182.897 179.504C183.084 179.504 183.262 179.578 183.394 179.71C183.526 179.842 183.6 180.021 183.6 180.207C183.6 180.394 183.526 180.573 183.394 180.704L156.654 207.445C156.589 207.51 156.511 207.562 156.426 207.597C156.341 207.633 156.249 207.651 156.157 207.651Z" fill="#D7F9FF"/>
<path d="M253.378 358.61L258.724 353.264L259.784 354.325L253.307 360.802L243.974 351.468L245.105 350.337L253.378 358.61ZM261.371 333.788C262.258 332.901 263.219 332.336 264.256 332.091C265.294 331.827 266.345 331.878 267.41 332.246C268.485 332.604 269.517 333.278 270.507 334.268C271.497 335.258 272.171 336.291 272.53 337.366C272.897 338.431 272.954 339.487 272.699 340.533C272.445 341.561 271.874 342.518 270.988 343.404C270.102 344.29 269.14 344.866 268.103 345.13C267.066 345.375 266.01 345.318 264.935 344.96C263.87 344.592 262.842 343.913 261.852 342.923C260.862 341.933 260.184 340.906 259.816 339.84C259.458 338.766 259.406 337.714 259.66 336.687C259.915 335.64 260.485 334.674 261.371 333.788ZM262.432 334.848C261.791 335.489 261.386 336.196 261.216 336.97C261.037 337.733 261.103 338.525 261.414 339.345C261.716 340.156 262.258 340.953 263.04 341.735C263.823 342.518 264.624 343.065 265.444 343.376C266.255 343.678 267.047 343.744 267.82 343.574C268.584 343.395 269.286 342.985 269.927 342.344C270.578 341.693 270.988 340.991 271.158 340.236C271.328 339.463 271.262 338.671 270.96 337.861C270.649 337.04 270.102 336.239 269.319 335.456C268.537 334.674 267.74 334.132 266.929 333.83C266.109 333.519 265.317 333.453 264.553 333.632C263.79 333.792 263.083 334.198 262.432 334.848ZM288.454 320.875C288.784 321.601 288.959 322.341 288.978 323.095C288.987 323.84 288.841 324.562 288.539 325.259C288.247 325.947 287.809 326.584 287.224 327.168C286.338 328.055 285.376 328.63 284.339 328.894C283.302 329.139 282.246 329.082 281.171 328.724C280.106 328.356 279.078 327.678 278.088 326.688C277.098 325.698 276.419 324.67 276.052 323.605C275.693 322.53 275.642 321.479 275.896 320.451C276.151 319.404 276.712 318.447 277.579 317.58C278.182 316.977 278.805 316.524 279.446 316.222C280.077 315.911 280.723 315.756 281.383 315.756C282.043 315.737 282.708 315.864 283.377 316.138L282.783 317.778C282.039 317.448 281.331 317.344 280.662 317.467C279.993 317.571 279.347 317.934 278.725 318.556C278.093 319.188 277.687 319.895 277.508 320.677C277.32 321.45 277.367 322.252 277.65 323.081C277.942 323.902 278.484 324.708 279.276 325.5C280.059 326.282 280.86 326.829 281.68 327.14C282.491 327.442 283.283 327.508 284.056 327.338C284.82 327.159 285.522 326.749 286.163 326.108C286.786 325.485 287.172 324.788 287.323 324.015C287.464 323.232 287.323 322.421 286.899 321.582L288.454 320.875ZM306.111 307.998L304.909 309.2L301.331 307.602L297.103 311.831L298.701 315.409L297.513 316.596L291.814 303.628L293.157 302.285L306.111 307.998ZM296.452 310.36L299.861 306.952L293.553 304.067L296.452 310.36ZM309.623 285.819L310.684 286.879L307.431 290.132L315.704 298.405L314.573 299.537L306.3 291.264L303.047 294.516L301.986 293.456L309.623 285.819ZM318.384 277.058L327.718 286.391L326.587 287.523L317.253 278.189L318.384 277.058ZM330.715 264.444C331.601 263.558 332.563 262.992 333.6 262.747C334.637 262.483 335.688 262.535 336.754 262.903C337.828 263.261 338.861 263.935 339.851 264.925C340.841 265.915 341.515 266.947 341.873 268.022C342.241 269.087 342.297 270.143 342.043 271.19C341.788 272.218 341.218 273.175 340.332 274.061C339.445 274.947 338.484 275.522 337.447 275.786C336.409 276.031 335.354 275.975 334.279 275.616C333.213 275.249 332.186 274.57 331.196 273.58C330.206 272.59 329.527 271.562 329.159 270.497C328.801 269.422 328.749 268.371 329.004 267.343C329.258 266.297 329.829 265.33 330.715 264.444ZM331.776 265.505C331.134 266.146 330.729 266.853 330.559 267.626C330.38 268.39 330.446 269.182 330.757 270.002C331.059 270.813 331.601 271.61 332.384 272.392C333.166 273.175 333.968 273.721 334.788 274.033C335.599 274.334 336.391 274.4 337.164 274.231C337.927 274.051 338.63 273.641 339.271 273C339.921 272.35 340.332 271.647 340.501 270.893C340.671 270.12 340.605 269.328 340.303 268.517C339.992 267.697 339.445 266.895 338.663 266.113C337.88 265.33 337.084 264.788 336.273 264.487C335.453 264.175 334.661 264.109 333.897 264.289C333.133 264.449 332.426 264.854 331.776 265.505ZM350.656 244.786L359.99 254.12L358.59 255.52L348.436 253.172L345.692 252.409L345.678 252.423L347.149 253.78L353.739 260.371L352.664 261.445L343.33 252.112L344.73 250.711L354.842 253.045L357.642 253.837L357.656 253.823L356.171 252.451L349.581 245.861L350.656 244.786Z" fill="#002533"/>
<path d="M110.672 276.9L109.612 277.96L106.359 274.708L98.0857 282.981L96.9543 281.849L105.227 273.576L101.975 270.323L103.035 269.263L110.672 276.9ZM115.136 300.031L113.934 298.829L115.532 295.251L111.304 291.023L107.726 292.621L106.538 291.433L119.506 285.734L120.85 287.077L115.136 300.031ZM112.775 290.372L116.183 293.781L119.068 287.473L112.775 290.372ZM135.56 301.787C136.512 302.74 137.031 303.748 137.116 304.814C137.2 305.879 136.823 306.831 135.984 307.67C135.145 308.51 134.198 308.873 133.142 308.759C132.105 308.646 131.11 308.114 130.158 307.161L129.988 307.133L127.697 304.842L123.822 308.717L122.691 307.586L132.024 298.252L135.56 301.787ZM131.148 306.171C131.817 306.841 132.449 307.199 133.043 307.246C133.655 307.293 134.24 307.039 134.796 306.483C135.353 305.926 135.602 305.346 135.546 304.743C135.508 304.14 135.155 303.503 134.485 302.834L132.095 300.444L128.758 303.781L131.148 306.171ZM131.572 307.048L129.945 314.841L128.602 313.497L130.002 306.723L131.572 307.048ZM141.29 326.468C140.404 325.582 139.829 324.62 139.565 323.583C139.32 322.546 139.376 321.49 139.734 320.415C140.102 319.35 140.781 318.322 141.771 317.332C142.761 316.342 143.798 315.673 144.882 315.324C145.976 314.984 147.051 314.956 148.107 315.239C149.172 315.512 150.138 316.083 151.006 316.95C151.93 317.874 152.505 318.798 152.731 319.722C152.967 320.655 152.901 321.664 152.533 322.748L150.935 322.282C151.265 321.537 151.34 320.802 151.161 320.076C151.001 319.35 150.596 318.661 149.945 318.011C149.313 317.379 148.602 316.969 147.81 316.781C147.036 316.592 146.226 316.639 145.377 316.922C144.547 317.205 143.741 317.737 142.959 318.52C142.176 319.303 141.62 320.094 141.29 320.896C140.979 321.697 140.908 322.485 141.078 323.258C141.266 324.031 141.705 324.761 142.393 325.45C142.78 325.836 143.185 326.147 143.609 326.383C144.052 326.619 144.496 326.76 144.939 326.807C145.391 326.864 145.839 326.812 146.282 326.652C146.725 326.491 147.15 326.209 147.555 325.803L147.88 325.478L144.91 322.508L145.971 321.447L149.973 325.45L145.264 330.159L144.373 329.268L146.056 327.472L146.254 327.755C145.424 328.094 144.585 328.16 143.737 327.953C142.888 327.745 142.073 327.25 141.29 326.468ZM153.56 338.455L162.894 329.121L169.442 335.669L168.381 336.73L162.965 331.313L159.952 334.326L164.167 338.54L163.106 339.601L158.892 335.386L155.752 338.526L161.381 344.154L160.32 345.215L153.56 338.455ZM184.131 350.359L183.071 351.419L179.818 348.167L171.545 356.44L170.413 355.308L178.686 347.035L175.434 343.782L176.494 342.722L184.131 350.359Z" fill="#002533"/>
</svg>
