<?xml version="1.0" encoding="iso-8859-1"?>
<!-- Generator: Adobe Illustrator 25.4.1, SVG Export Plug-In . SVG Version: 6.00 Build 0)  -->
<svg version="1.1" id="Layer_1" xmlns="http://www.w3.org/2000/svg" xmlns:xlink="http://www.w3.org/1999/xlink" x="0px" y="0px"
	 viewBox="0 0 800 800" style="enable-background:new 0 0 800 800;" xml:space="preserve">
<g>
	<path d="M47.405,469.987c-0.087-0.113-0.151-0.158-0.157-0.209c-0.556-4.73-0.555-4.73,4.101-4.73
		c232.863,0,465.726,0,698.589,0.003c3.508,0,3.018-0.363,3.058,2.965c0.007,0.603,0.001,1.206,0.001,1.971
		C517.751,469.987,282.615,469.987,47.405,469.987z"/>
	<path style="fill:#F68938;" d="M47.405,459.947c-0.087-0.113-0.151-0.158-0.157-0.209c-0.556-4.73-0.555-4.73,4.101-4.73
		c232.863,0,465.726,0,698.589,0.003c3.508,0,3.018-0.363,3.058,2.965c0.007,0.603,0.001,1.206,0.001,1.971
		C517.751,459.947,282.615,459.947,47.405,459.947z"/>
	<path d="M576.794,356.338c0-1.354,0.036-2.595-0.011-3.833c-0.04-1.043,0.285-1.577,1.437-1.562c5.18,0.068,4.211-0.546,4.25,4.03
		c0.056,6.63,0.027,13.261,0.001,19.891c-0.004,1.099,0.081,1.861,1.517,1.85c6.691-0.05,13.382-0.021,20.073-0.033
		c0.35-0.001,0.7-0.108,1.331-0.213c-1.975-7.501-2.067-14.64,4.349-20.416c-0.117-0.131-0.234-0.261-0.35-0.392
		c-1.789,0-3.583-0.078-5.366,0.023c-1.59,0.09-1.868-0.758-1.736-2.029c0.125-1.191-0.614-2.766,1.707-2.803
		c5.898-0.094,11.825-0.799,17.681-0.393c4.312,0.299,8.796,0.782,12.802,2.986c6.713,3.694,10.096,11.091,8.594,19.101
		c-0.233,1.245-0.452,2.493-0.72,3.975c0.7,0.066,1.27,0.165,1.84,0.167c4.319,0.013,8.639-0.048,12.956,0.038
		c1.461,0.029,1.813-0.455,1.853-1.874c0.189-6.647,3.943-11.409,9.898-12.768c5.898-1.346,11.5,1.606,13.72,7.231
		c1.893,4.795,0.484,11.437-3.161,14.899c-2.563,2.435-4.107,2.599-7.099,0.759c-1.865-1.147-3.707-2.332-5.606-3.418
		c-0.985-0.564-1.361-1.237-1.134-2.375c0.236-1.181,0.301-2.396,0.479-3.931c0.685,0.375,1.201,0.604,1.659,0.917
		c1.658,1.131,3.289,2.3,4.943,3.437c2.533,1.742,4.081,1.199,5.028-1.745c1.661-5.163-0.153-9.306-4.816-10.716
		c-5.157-1.559-9.624,1.551-9.617,5.903c0.003,1.799-0.428,3.621-0.841,5.391c-0.506,2.169-1.621,3.033-3.844,3.241
		c-0.724,0.068-1.459,0.038-2.188,0.038c-30.049,0.001-60.098,0.001-90.147,0.001c-3.71,0-7.425-0.134-11.127,0.03
		c-6.144,0.272-9.016-3.501-9.992-7.919c-1.552-7.021-0.43-13.458,5.4-18.194c6.152-4.996,13.166-6.049,20.547-3.03
		C573.062,353.399,574.713,354.941,576.794,356.338z M623.709,376.695c2.979,0,5.959,0.005,8.938-0.002
		c2.614-0.006,4.716-1.292,5.272-3.867c0.953-4.415,0.745-8.736-2.638-12.284c-4.45-4.666-11.686-6.127-17.845-3.622
		c-6.681,2.717-9.87,8.759-8.126,15.395c0.753,2.866,2.697,4.377,5.644,4.379C617.872,376.696,620.79,376.694,623.709,376.695z
		 M564.378,376.694c3.101,0,6.203,0.007,9.304-0.002c2.331-0.007,3.479-0.876,3.479-3.214c0.001-2.406-0.173-4.883-0.757-7.206
		c-1.801-7.173-8.466-11.402-15.493-10.067c-8.192,1.556-12.274,6.966-11.373,15.072c0.383,3.446,2.594,5.415,6.086,5.417
		C558.542,376.696,561.46,376.694,564.378,376.694z"/>
	<g>
		<path style="fill:#040707;" d="M232.303,330.013c8.883,0,17.426,0,26.223,0c-0.496,2.662-1.028,5.134-1.397,7.63
			c-0.274,1.857-0.471,3.746-0.473,5.621c-0.03,25.795-0.086,51.591,0.045,77.385c0.021,4.216,0.905,8.428,1.405,12.64
			c0.105,0.885,0.278,1.763,0.444,2.799c-8.814,0-17.415,0-26.29,0c0.533-2.918,1.087-5.691,1.529-8.482
			c0.237-1.495,0.398-3.02,0.399-4.532c0.023-26.829,0.068-53.659-0.048-80.488c-0.015-3.365-0.908-6.727-1.404-10.088
			C232.623,331.732,232.471,330.972,232.303,330.013z"/>
		<path style="fill:#040707;" d="M222.242,436.088c-8.88,0-17.478,0-26.318,0c0.35-1.694,0.727-3.211,0.965-4.749
			c0.268-1.731,0.578-3.481,0.581-5.224c0.039-22.44,0.004-44.88,0.057-67.319c0.006-2.368-0.199-4.584-1.522-6.606
			c-0.252-0.385-0.358-0.866-0.621-1.528c8.771,0,17.339,0,25.887,0c0.063,0.179,0.168,0.323,0.132,0.397
			c-1.718,3.524-1.511,7.295-1.506,11.062c0.028,20.129,0.071,40.258-0.034,60.387c-0.021,4.07,0.349,7.981,1.85,11.768
			C221.909,434.769,222.015,435.298,222.242,436.088z"/>
		<path style="fill:#040707;" d="M186.179,436.122c-8.952,0-17.56,0-26.283,0c0.044-0.39-0.021-0.741,0.123-0.947
			c1.632-2.342,1.606-4.983,1.599-7.687c-0.045-16.789-0.048-33.579,0.007-50.368c0.007-2.299-0.224-4.464-1.318-6.507
			c-0.243-0.454-0.346-0.983-0.586-1.696c8.869,0,17.497,0,26.356,0c-0.266,0.613-0.374,1.091-0.645,1.447
			c-1.637,2.152-1.875,4.58-1.863,7.212c0.075,17.093,0.068,34.187,0.001,51.281c-0.008,2.161,0.262,4.08,1.721,5.739
			C185.595,434.941,185.769,435.405,186.179,436.122z"/>
	</g>
	<g>
		<path style="fill:#F68938;" d="M73.246,330.013c-8.883,0-17.426,0-26.223,0c0.496,2.662,1.028,5.134,1.397,7.63
			c0.274,1.857,0.471,3.746,0.473,5.621c0.03,25.795,0.086,51.591-0.045,77.385c-0.021,4.216-0.905,8.428-1.405,12.64
			c-0.105,0.885-0.278,1.763-0.444,2.799c8.814,0,17.415,0,26.29,0c-0.533-2.918-1.087-5.691-1.529-8.482
			c-0.237-1.495-0.398-3.02-0.399-4.532c-0.023-26.829-0.068-53.659,0.048-80.488c0.015-3.365,0.908-6.727,1.404-10.088
			C72.926,331.732,73.078,330.972,73.246,330.013z"/>
		<path style="fill:#F68938;" d="M83.307,436.088c8.88,0,17.478,0,26.318,0c-0.35-1.694-0.727-3.211-0.965-4.749
			c-0.268-1.731-0.578-3.481-0.581-5.224c-0.039-22.44-0.004-44.88-0.057-67.319c-0.006-2.368,0.199-4.584,1.522-6.606
			c0.252-0.385,0.358-0.866,0.621-1.528c-8.771,0-17.339,0-25.887,0c-0.063,0.179-0.168,0.323-0.132,0.397
			c1.718,3.524,1.511,7.295,1.506,11.062c-0.028,20.129-0.071,40.258,0.034,60.387c0.021,4.07-0.349,7.981-1.85,11.768
			C83.641,434.769,83.534,435.298,83.307,436.088z"/>
		<path style="fill:#F68938;" d="M119.37,436.122c8.952,0,17.56,0,26.283,0c-0.044-0.39,0.021-0.741-0.123-0.947
			c-1.632-2.342-1.606-4.983-1.599-7.687c0.045-16.789,0.048-33.579-0.007-50.368c-0.007-2.299,0.224-4.464,1.318-6.507
			c0.243-0.454,0.346-0.983,0.586-1.696c-8.869,0-17.497,0-26.356,0c0.266,0.613,0.374,1.091,0.645,1.447
			c1.637,2.152,1.875,4.58,1.863,7.212c-0.075,17.093-0.068,34.187-0.001,51.281c0.008,2.161-0.262,4.08-1.721,5.739
			C119.954,434.941,119.78,435.405,119.37,436.122z"/>
	</g>
	<path d="M435.928,375.043c2.473,1.715,4.553,3.17,6.646,4.605c2.326,1.595,3.768,1.063,4.568-1.667
		c1.555-5.302-0.217-9.425-4.677-10.882c-4.007-1.31-7.567,0.617-8.545,4.704c-0.452,1.89-0.73,3.821-1.097,5.732
		c-0.589,3.065-1.816,4.126-4.993,4.163c-3.833,0.044-7.666,0.014-11.5,0.014c-7.18,0.001-14.359,0-21.539,0
		c-0.71,0-1.421,0-2.389,0c0-16.535,0-32.808,0-49.333c1.45,0,2.966-0.105,4.448,0.073c0.377,0.045,0.912,0.988,0.921,1.526
		c0.075,4.38,0.042,8.761,0.042,13.142c0,9.127,0.046,18.254-0.04,27.38c-0.017,1.805,0.579,2.243,2.293,2.229
		c8.7-0.075,17.402-0.08,26.102,0.005c1.7,0.017,2.273-0.426,2.404-2.179c0.513-6.859,4.158-11.23,10.205-12.545
		c7.174-1.56,14.017,3.919,14.052,11.254c0.015,3.112-0.25,2.759,2.707,2.768c6.449,0.02,12.899-0.009,19.348,0.065
		c1.594,0.018,2.241-0.378,2.19-2.138c-0.13-4.499-0.009-9.004-0.065-13.506c-0.016-1.244,0.347-1.727,1.648-1.698
		c4.454,0.098,3.598-0.394,3.647,3.5c0.05,4.015,0.059,8.032-0.015,12.047c-0.025,1.371,0.438,1.77,1.787,1.759
		c7.058-0.057,14.116-0.065,21.174,0.005c1.516,0.015,1.973-0.448,1.967-1.962c-0.051-13.203,0-26.407-0.066-39.61
		c-0.008-1.67,0.431-2.228,2.131-2.165c4.312,0.158,3.608-0.439,3.616,3.554c0.03,14.542-0.018,29.084,0.051,43.626
		c0.008,1.755-0.461,2.249-2.228,2.244c-19.104-0.062-38.208-0.025-57.312-0.066c-1.449-0.003-2.577,0.208-3.401,1.531
		c-0.405,0.65-1.073,1.159-1.685,1.653c-2.173,1.755-2.971,1.798-5.378,0.384c-2.15-1.263-4.282-2.557-6.456-3.777
		c-0.917-0.515-1.312-1.102-1.079-2.201C435.67,378.047,435.727,376.776,435.928,375.043z"/>
	<path d="M369.436,375.064c2.78,1.78,5.164,3.334,7.575,4.843c1.791,1.121,3.19,0.722,4.225-1.134
		c1.56-2.798,1.178-6.921-0.859-9.277c-2.149-2.485-6.101-3.452-9.183-2.226c-2.001,0.796-3.346,2.16-3.684,4.373
		c-0.303,1.983-0.602,3.967-0.947,5.943c-0.445,2.547-1.673,3.727-4.216,4.048c-0.78,0.099-1.579,0.075-2.369,0.076
		c-18.494,0.004-36.988,0.003-55.481,0.003c-6.399,0-9.916-2.949-10.87-9.356c-1.03-6.921,0.53-13.06,6.436-17.333
		c6.159-4.456,12.955-5.395,20.017-2.331c1.897,0.823,3.495,2.335,5.539,3.742c0-1.285,0.062-2.453-0.016-3.612
		c-0.091-1.348,0.269-1.991,1.803-1.934c4.04,0.149,3.468-0.498,3.485,3.497c0.028,6.753,0.055,13.506-0.027,20.258
		c-0.019,1.584,0.4,2.098,2.034,2.085c9.247-0.072,18.494-0.065,27.741-0.004c1.496,0.01,1.942-0.405,1.973-1.935
		c0.149-7.365,5.165-12.789,11.882-13.02c6.136-0.211,11.243,4.022,12.107,10.143c0.502,3.558,0.408,7.112-1.682,10.208
		c-0.893,1.323-2.143,2.472-3.424,3.447c-1.298,0.987-2.782,0.946-4.265,0.037c-2.228-1.366-4.495-2.679-6.82-3.871
		c-1.273-0.653-1.833-1.435-1.521-2.871C369.128,377.75,369.22,376.606,369.436,375.064z M313.25,376.694
		c3.099,0,6.198,0.008,9.298-0.003c2.534-0.009,3.728-1.063,3.738-3.615c0.007-1.746-0.228-3.51-0.521-5.238
		c-1.446-8.53-9.207-13.59-17.541-11.273c-7.848,2.181-11.197,8.296-9.639,15.895c0.549,2.676,2.663,4.224,5.369,4.232
		C307.053,376.701,310.151,376.694,313.25,376.694z"/>
	<path d="M693.305,381.481c0-0.667,0-1.265,0-1.863c0-15.03,0.032-30.059-0.042-45.088c-0.009-1.812,0.552-2.262,2.27-2.207
		c3.487,0.111,3.489,0.023,3.489,3.498c0,12.656,0.03,25.313-0.035,37.969c-0.009,1.705,0.398,2.281,2.203,2.301
		c11.803,0.126,23.604,0.389,35.406,0.567c1.2,0.018,2.458-0.047,3.594-0.391c2.464-0.746,3.881-2.745,3.909-5.138
		c0.028-2.438-1.434-4.647-3.823-5.441c-1.13-0.376-2.374-0.558-3.569-0.568c-6.449-0.054-12.9,0.012-19.349-0.07
		c-0.945-0.012-2.156-0.34-2.741-0.98c-0.514-0.563-0.667-1.919-0.347-2.648c0.31-0.706,1.388-1.416,2.193-1.498
		c2.108-0.216,4.252-0.097,6.381-0.098c5.355-0.004,10.709-0.003,16.064-0.001c5.389,0.002,8.291,2.091,9.959,7.282
		c0.955,2.972,1.052,5.981-0.047,8.953c-1.33,3.596-4.019,5.58-7.764,5.604c-15.455,0.098-30.911,0.047-46.366,0.039
		C694.283,381.701,693.876,381.576,693.305,381.481z"/>
	<path d="M464.186,437.284c-0.184,0.107-0.233,0.157-0.288,0.164c-4.171,0.55-4.171,0.549-4.171-3.574
		c0-5.047,0.061-10.095-0.036-15.14c-0.031-1.584,0.379-2.269,2.024-2.052c0.768,0.101,1.56,0.017,2.469,0.017
		c0.119,0.892,0.217,1.634,0.372,2.799c1.847-2.034,3.435-3.741,6.327-3.565c2.886,0.175,4.728,1.26,5.648,4.378
		c0.619-0.765,0.983-1.2,1.331-1.648c2.807-3.618,7.106-3.287,9.714-1.179c1.159,0.937,2.006,2.871,2.094,4.405
		c0.277,4.788,0.127,9.601,0.137,14.404c0.004,1.938-1.487,1.121-2.405,1.241c-1.011,0.132-1.93,0.089-1.907-1.422
		c0.063-4.012,0.079-8.027-0.021-12.038c-0.026-1.036-0.317-2.214-0.886-3.057c-1.147-1.699-3.453-1.842-4.954-0.439
		c-1.653,1.545-2.727,3.383-2.694,5.762c0.043,3.161-0.054,6.325,0.033,9.485c0.038,1.392-0.471,1.771-1.796,1.759
		c-2.894-0.026-2.893,0.035-2.893-2.81c0.001-3.223,0.012-6.445-0.01-9.668c-0.006-0.847-0.061-1.703-0.196-2.539
		c-0.255-1.579-1.029-2.796-2.773-2.887c-1.756-0.093-3.358,0.505-4.013,2.237c-0.526,1.391-0.827,2.932-0.884,4.42
		c-0.134,3.522-0.061,7.051-0.08,10.577C464.327,437.028,464.244,437.139,464.186,437.284z"/>
	<path d="M577.844,417.043c0-3.345,0.074-6.693-0.034-10.035c-0.048-1.494,0.482-1.993,1.885-1.824
		c0.48,0.058,1.053-0.146,1.439,0.053c0.522,0.269,1.287,0.807,1.289,1.233c0.033,7.054,0.477,14.159-0.225,21.148
		c-0.745,7.422-6.555,12.389-15.937,10.677c-4.191-0.765-9.026-5.527-9.153-10.157c-0.198-7.231-0.217-14.468-0.231-21.702
		c-0.001-0.411,0.685-0.876,1.13-1.21c0.196-0.147,0.59-0.031,0.894-0.033c2.606-0.016,2.606-0.015,2.606,2.524
		c0,5.657-0.029,11.313,0.023,16.97c0.012,1.322,0.125,2.694,0.494,3.954c1.821,6.221,8.86,8.084,13.646,3.691
		c1.506-1.382,2.064-3.144,2.103-5.072c0.068-3.404,0.019-6.811,0.019-10.217C577.809,417.043,577.826,417.043,577.844,417.043z"/>
	<path d="M398.893,416.798c1.453,0,2.585,0,3.815,0c0.103,0.836,0.196,1.59,0.34,2.759c4.47-4.336,8.768-5.714,12.831,0.462
		c0.457-0.506,0.885-0.964,1.296-1.436c2.126-2.439,4.799-3.241,7.499-2.243c2.445,0.904,4.366,3.749,4.381,6.582
		c0.022,4.256-0.044,8.513,0.034,12.768c0.026,1.423-0.41,1.921-1.858,1.899c-2.871-0.043-2.872,0.029-2.872-2.859
		c-0.001-3.526,0.013-7.053-0.006-10.579c-0.015-2.691-1.098-4.25-3.05-4.474c-1.887-0.217-4.246,1.431-4.606,3.616
		c-0.392,2.378-0.431,4.819-0.533,7.237c-0.079,1.882-0.052,3.77-0.003,5.653c0.027,1.035-0.403,1.447-1.404,1.38
		c-0.484-0.032-0.979-0.057-1.458,0.006c-1.441,0.188-1.889-0.395-1.856-1.842c0.091-3.889,0.047-7.782,0.023-11.673
		c-0.015-2.425-0.829-3.861-2.351-4.3c-1.609-0.464-3.783,0.343-4.81,2.191c-0.738,1.328-1.283,2.913-1.377,4.417
		c-0.204,3.271-0.092,6.563-0.047,9.846c0.014,1.047-0.409,1.531-1.393,1.329c-0.916-0.188-2.537,0.77-2.562-1.07
		C398.84,429.973,398.893,423.479,398.893,416.798z"/>
	<path d="M293.07,437.42c5.183-11.344,10.217-22.362,15.495-33.914c5.399,11.563,10.548,22.589,15.706,33.635
		c-3.257,1.097-4.375,0.649-5.737-2.166c-0.741-1.532-1.372-3.13-2.257-4.573c-0.362-0.591-1.253-1.186-1.921-1.207
		c-3.706-0.116-7.421-0.124-11.126,0.002c-0.718,0.024-1.671,0.643-2.061,1.27c-0.927,1.487-1.737,3.091-2.305,4.746
		c-0.671,1.954-1.851,2.693-3.831,2.353C294.512,437.477,293.976,437.484,293.07,437.42z M303.5,425.302c3.611,0,6.838,0,10.46,0
		c-1.802-3.819-3.472-7.357-5.391-11.423C306.769,417.935,305.215,421.438,303.5,425.302z"/>
	<path d="M525.56,419.421c1.123-0.813,1.966-1.364,2.742-1.996c2.3-1.872,4.846-1.848,7.358-0.733
		c2.675,1.188,4.048,3.418,4.071,6.37c0.034,4.315-0.021,8.631,0.034,12.945c0.016,1.204-0.418,1.669-1.591,1.558
		c-0.542-0.051-1.096-0.044-1.64-0.003c-1.126,0.085-1.469-0.443-1.456-1.52c0.044-3.646,0.022-7.293,0.014-10.94
		c-0.008-3.457-0.913-5.004-3.141-5.406c-2.26-0.408-4.993,1.32-5.933,3.91c-0.365,1.005-0.529,2.128-0.555,3.203
		c-0.073,2.976-0.098,5.958,0.005,8.932c0.051,1.481-0.497,2.005-1.894,1.82c-0.179-0.024-0.368-0.028-0.546,0
		c-1.717,0.279-2.282-0.368-2.264-2.163c0.09-8.751,0.041-17.503,0.041-26.255c0-1.033,0.055-2.07-0.014-3.099
		c-0.079-1.186,0.383-1.695,1.576-1.568c0.481,0.051,0.976,0.052,1.457,0.001c1.321-0.14,1.652,0.506,1.633,1.722
		c-0.056,3.646-0.025,7.293-0.016,10.939C525.444,417.776,525.506,418.411,525.56,419.421z"/>
	<path d="M389.928,420.028c0.186-1.081,0.021-2.587,0.631-3.033c0.766-0.56,2.167-0.252,3.396-0.325
		c0.071,0.697,0.16,1.164,0.161,1.631c0.01,5.837-0.05,11.675,0.044,17.511c0.025,1.58-0.646,1.783-1.948,1.776
		c-1.311-0.007-2.332-0.076-2.093-1.81c0.071-0.515-0.042-1.055-0.104-2.188c-5.653,5.847-11.425,6.723-16.464,0.309
		c-3.329-4.238-2.776-11.068,0.336-13.857c1.511-1.354,3.086-2.951,4.92-3.543c1.841-0.594,4.185-0.521,6.043,0.082
		C386.688,417.175,388.193,418.797,389.928,420.028z M390.376,427.025c-0.049-3.786-3.337-6.82-7.349-6.783
		c-3.87,0.036-6.951,3.153-6.898,6.98c0.052,3.753,3.477,7.442,6.889,7.419C386.878,434.615,390.427,430.942,390.376,427.025z"/>
	<path d="M512.443,420.374c0.56-3.982,0.82-4.175,4.232-3.367c0,2.069,0,4.187,0,6.305c0,4.197-0.081,8.395,0.039,12.588
		c0.049,1.714-0.862,1.668-2.043,1.673c-1.193,0.005-2.262,0.018-2.016-1.681c0.077-0.528,0.012-1.076,0.012-1.952
		c-2.042,1.438-3.702,2.971-5.653,3.884c-2.181,1.021-4.667,0.687-6.65-0.633c-1.827-1.217-3.7-2.694-4.874-4.498
		c-2.717-4.176-1.726-10.084,1.786-13.582c2.195-2.186,4.743-3.136,7.869-3.141C508.413,415.966,510.174,418.246,512.443,420.374z
		 M512.963,427.224c0.023-3.776-3.074-6.942-6.83-6.98c-4.145-0.043-7.41,2.966-7.427,6.844c-0.018,3.923,3.547,7.567,7.389,7.554
		C509.439,434.63,512.94,430.849,512.963,427.224z"/>
	<path d="M450.851,433.791c-1.469,1.22-2.441,2.128-3.512,2.897c-2.983,2.141-6.991,2.165-9.806-0.188
		c-7.316-6.114-6.27-14.359,0.872-19.301c3.295-2.28,8.012-1.475,10.816,1.542c0.384,0.413,0.758,0.835,1.363,1.503
		c0.149-0.676,0.247-0.948,0.263-1.225c0.13-2.182,1.075-2.897,3.173-2.242c0.355,0.111,0.771,0.755,0.774,1.156
		c0.048,6.14,0.034,12.281,0.031,18.422c-0.001,1.636-1.251,1.138-2.121,1.188c-0.901,0.051-1.936,0.182-1.859-1.275
		C450.879,435.624,450.851,434.977,450.851,433.791z M451.194,427.269c0.031-3.758-3.111-6.997-6.796-7.004
		c-3.777-0.007-6.943,3.184-7.186,6.788c-0.249,3.684,4.173,7.536,7.062,7.563C447.571,434.647,451.165,430.873,451.194,427.269z"/>
	<path d="M525.32,381.692c-1.377,0-2.714,0.122-4.001-0.076c-0.374-0.058-0.854-1.027-0.866-1.586
		c-0.129-6.387-0.161-12.777-0.251-19.165c-0.124-8.761-0.276-17.522-0.414-26.282c-0.01-0.654-0.001-1.307-0.001-2.091
		c1.951,0,3.682,0,5.534,0C525.32,348.879,525.32,365.156,525.32,381.692z"/>
	<path d="M660.134,431.342c1.034,0.734,1.99,1.414,2.94,2.088c-2.461,3.775-8.242,5.747-12.58,4.428
		c-4.881-1.484-7.981-5.395-8.157-10.292c-0.179-4.97,2.522-9.04,7.255-10.934c6.597-2.64,14.359,2.397,14.678,9.474
		c0.059,1.309-0.629,1.35-1.568,1.348c-4.68-0.012-9.36-0.01-14.04,0c-0.643,0.001-1.286,0.069-2.147,0.118
		c0.661,3.102,1.848,5.556,4.806,6.555C654.765,435.29,657.771,434.491,660.134,431.342z M659.417,424.249
		c-0.624-2.626-2.424-3.819-5.703-3.952c-3.319-0.135-5.371,1.096-6.333,3.952C651.38,424.249,655.318,424.249,659.417,424.249z"/>
	<path d="M349.441,405.21c1.884,0,3.277-0.111,4.635,0.056c0.522,0.064,1.105,0.676,1.424,1.186
		c1.997,3.195,3.925,6.434,5.884,9.653c0.304,0.5,0.649,0.975,1.174,1.76c0.6-0.929,1.058-1.604,1.483-2.3
		c1.71-2.802,3.511-5.554,5.071-8.437c0.853-1.575,1.908-2.192,3.63-1.95c0.762,0.107,1.552,0.018,2.803,0.018
		c-0.86,1.182-1.533,1.987-2.076,2.873c-2.829,4.611-5.65,9.226-8.401,13.883c-0.372,0.63-0.454,1.503-0.462,2.265
		c-0.044,3.891-0.095,7.785,0.015,11.673c0.048,1.689-0.859,1.686-2.056,1.685c-1.195-0.001-2.118,0.001-2.069-1.683
		c0.107-3.706,0.126-7.42-0.009-11.124c-0.046-1.26-0.41-2.651-1.059-3.721c-2.805-4.624-5.771-9.15-8.676-13.714
		C350.399,406.783,350.064,406.222,349.441,405.21z"/>
	<path d="M587.186,416.908c3.476-0.547,3.476-0.547,4.029,2.771c1.146-0.871,2.237-1.682,3.309-2.519
		c2.424-1.892,4.945-1.258,7.396-0.177c2.24,0.987,3.204,3.084,3.296,5.301c0.194,4.674,0.091,9.363,0.014,14.043
		c-0.007,0.414-0.671,0.893-1.127,1.195c-0.255,0.169-0.71,0.036-1.075,0.036c-2.42,0-2.422,0-2.424-2.368
		c-0.003-3.649,0.059-7.298-0.022-10.945c-0.083-3.745-3.292-5.869-6.099-3.95c-1.969,1.346-3.488,3.221-3.48,5.876
		c0.009,3.223-0.092,6.449,0.034,9.667c0.064,1.632-0.719,1.781-1.983,1.739c-1.139-0.039-2.099,0.117-2.069-1.635
		c0.106-6.14,0.048-12.282,0.059-18.424C587.045,417.341,587.124,417.166,587.186,416.908z"/>
	<path d="M726.827,416.887c2.673-0.433,4.77-0.451,6.253,2.17c1.34,2.368,3.135,4.478,4.741,6.693
		c0.342,0.472,0.738,0.906,1.321,1.617c1.38-2.746,2.629-5.218,3.865-7.697c1.663-3.334,1.922-3.463,5.934-2.734
		c-0.197,0.506-0.35,1.001-0.573,1.461c-4.266,8.806-8.539,17.608-12.814,26.41c-1.416,2.917-1.42,2.915-5.005,2.393
		c0.23-0.634,0.409-1.233,0.66-1.801c1.719-3.891,3.414-7.793,5.205-11.65c0.529-1.139,0.425-1.973-0.29-3.001
		c-2.814-4.041-5.536-8.147-8.286-12.232C727.517,418.038,727.229,417.537,726.827,416.887z"/>
	<path d="M639.694,417.039c-3.469,7.027-6.916,14.009-10.612,21.496c-3.559-7.428-6.898-14.397-10.24-21.371
		c2.737-1.179,4.379-0.621,5.6,1.818c1.197,2.39,2.394,4.781,3.604,7.165c0.262,0.517,0.582,1.005,1.075,1.848
		c1-1.83,1.835-3.339,2.652-4.858c0.691-1.285,1.355-2.583,2.04-3.871C635.325,416.422,636.07,416.122,639.694,417.039z"/>
	<path d="M698.116,419.089c-0.852,0.715-1.296,1.027-1.667,1.41c-0.953,0.984-1.76,0.966-2.992,0.213
		c-1.022-0.624-2.527-0.962-3.687-0.741c-1.831,0.349-2.174,2.07-0.712,3.238c1.112,0.888,2.439,1.663,3.795,2.062
		c4.757,1.402,5.888,3.92,4.752,8.596c-0.861,3.545-5.741,5.353-9.544,3.853c-1.834-0.723-3.365-1.851-4.313-3.644
		c2.293-1.775,2.815-1.796,4.956-0.305c1.175,0.818,2.404,1.147,3.747,0.37c2.073-1.199,2.338-2.819,0.504-4.34
		c-1.092-0.907-2.422-1.567-3.721-2.175c-1.879-0.879-3.918-1.52-4.485-3.871c-0.49-2.03-0.521-3.993,1.123-5.603
		c2.171-2.125,4.805-2.664,7.58-1.729C695.003,416.946,696.356,418.057,698.116,419.089z"/>
	<path d="M332.997,421.271c0,4.865-0.08,9.732,0.038,14.593c0.05,2.049-1.227,1.652-2.395,1.696
		c-1.157,0.044-2.072,0.105-2.058-1.632c0.081-9.911,0.082-19.824,0-29.735c-0.015-1.819,0.941-1.723,2.172-1.725
		c1.31-0.002,2.329-0.049,2.283,1.845C332.918,411.296,332.997,416.285,332.997,421.271z"/>
	<path d="M722.468,420.676c-0.902,0-1.862,0.057-2.813-0.014c-1.278-0.096-1.678,0.437-1.662,1.691
		c0.058,4.433-0.021,8.867,0.048,13.3c0.021,1.361-0.282,1.962-1.799,1.954c-1.502-0.008-1.996-0.462-1.965-1.986
		c0.09-4.371-0.026-8.746,0.065-13.117c0.03-1.454-0.415-1.916-1.853-1.86c-2.065,0.081-3.065-1.454-2.189-3.334
		c0.167-0.357,0.976-0.556,1.5-0.581c2.506-0.119,2.508-0.089,2.509-2.663c0-0.547-0.002-1.093,0-1.64
		c0.007-2.157,0.157-2.251,2.242-2.21c1.105,0.022,1.527,0.445,1.477,1.529c-0.054,1.151,0.028,2.309-0.022,3.461
		c-0.046,1.073,0.349,1.619,1.472,1.503c0.12-0.012,0.243-0.003,0.364-0.002C723.109,416.749,723.294,417.008,722.468,420.676z"/>
	<path d="M673.101,416.706c0.075,1.175,0.135,2.125,0.241,3.79c1.903-3.459,4.163-5.357,8.105-4.136
		c-0.476,1.376-0.951,2.752-1.41,4.077c-4.769-0.275-6.805,1.653-6.817,6.267c-0.009,3.517-0.002,7.034-0.002,10.83
		c-1.368,0-2.574,0.097-3.747-0.058c-0.365-0.048-0.91-0.778-0.914-1.2c-0.06-6.082-0.03-12.165-0.054-18.248
		c-0.004-0.919,0.312-1.357,1.261-1.329C670.844,416.73,671.924,416.706,673.101,416.706z"/>
	<path d="M610.098,416.707c1.062,0,1.985-0.136,2.835,0.055c0.447,0.101,1.087,0.77,1.092,1.189
		c0.07,6.143,0.036,12.287,0.055,18.431c0.004,1.37-0.957,1.232-1.77,1.15c-0.828-0.083-2.19,0.604-2.198-1.059
		C610.079,429.976,610.098,423.479,610.098,416.707z"/>
	<path d="M706.485,427.106c0,2.98-0.068,5.962,0.027,8.939c0.052,1.648-0.954,1.524-2.018,1.516
		c-1.04-0.009-2.072,0.184-2.055-1.482c0.062-5.959,0.068-11.92-0.005-17.879c-0.02-1.658,0.958-1.524,2.018-1.498
		c1.013,0.024,2.11-0.233,2.058,1.466C706.419,421.145,706.485,424.126,706.485,427.106z"/>
	<path d="M609.084,409.3c0.096-1.709,1.835-3.806,3.123-3.765c1.394,0.044,4.209,2.794,4.169,4.072
		c-0.046,1.442-2.553,3.283-4.345,3.19C610.333,412.71,608.982,411.107,609.084,409.3z"/>
	<path d="M474.846,384.613c1.848,0.02,3.383,1.741,3.383,3.794c0,1.908-1.602,3.456-3.512,3.393
		c-1.932-0.064-3.479-1.656-3.418-3.519C471.365,386.276,472.992,384.594,474.846,384.613z"/>
	<path d="M734.279,391.854c-1.77,0.011-3.305-1.586-3.302-3.437c0.003-2.09,1.546-3.875,3.328-3.85
		c1.72,0.024,3.394,1.949,3.375,3.879C737.662,390.177,735.999,391.844,734.279,391.854z"/>
	<path d="M479.41,388.263c0.071-2.123,1.478-3.712,3.231-3.647c1.831,0.067,3.575,2.082,3.452,3.99
		c-0.114,1.769-1.924,3.297-3.784,3.193C480.607,391.704,479.346,390.166,479.41,388.263z"/>
	<path d="M707.438,409.523c0.006,2.163-1.005,3.406-2.914,3.231c-1.904-0.174-3.691-1.243-3.664-3.263
		c0.019-1.454,2.397-3.98,3.705-3.946C706.071,405.584,707.433,407.471,707.438,409.523z"/>
	<path d="M307.28,343.792c-1.947-0.006-3.407-1.284-3.417-2.993c-0.011-1.722,1.426-3.008,3.382-3.027
		c2.112-0.02,3.581,1.207,3.584,2.994C310.833,342.571,309.393,343.798,307.28,343.792z"/>
	<path d="M566.943,343.789c-2.034-0.116-3.366-1.375-3.3-3.12c0.067-1.771,1.64-2.997,3.712-2.893
		c1.866,0.094,3.001,1.351,2.904,3.216C570.166,342.78,568.843,343.897,566.943,343.789z"/>
	<path d="M562.44,340.765c0.008,1.753-1.336,3.038-3.162,3.024c-2.01-0.015-3.423-1.24-3.438-2.983
		c-0.016-1.734,1.387-2.987,3.392-3.028C561.045,337.74,562.433,339.032,562.44,340.765z"/>
	<path d="M315.031,337.775c1.896-0.008,3.02,1.147,2.989,3.071c-0.029,1.836-1.133,2.945-2.934,2.949
		c-1.995,0.004-3.012-1.09-2.996-3.225C312.105,338.639,313.006,337.783,315.031,337.775z"/>
</g>
</svg>
