<?xml version="1.0" encoding="utf-8"?>
<!-- Generator: Adobe Illustrator 19.2.1, SVG Export Plug-In . SVG Version: 6.00 Build 0)  -->
<svg version="1.1" id="layer" xmlns="http://www.w3.org/2000/svg" xmlns:xlink="http://www.w3.org/1999/xlink" x="0px" y="0px"
	 viewBox="0 0 652 652" style="enable-background:new 0 0 652 652;" xml:space="preserve">
<style type="text/css">
	.st0{fill:#696C71;}
</style>
<g>
	<path class="st0" d="M612.8,358.1H611v-2.2h1.3c0.7,0,1.9,0.1,1.9,1C614.2,357.9,613.6,358.1,612.8,358.1 M616.5,356.9
		c0-2-1.2-2.6-4.1-2.6h-3.6v9.4h2.3v-3.9h0.7l2.2,3.9h2.3l-2.5-4.1C615.4,359.5,616.5,358.9,616.5,356.9"/>
	<path class="st0" d="M612.4,365.4c-3.5,0-6.3-2.7-6.3-6.5c0-3.8,2.8-6.5,6.3-6.5c3.4,0,6.3,2.6,6.3,6.5
		C618.7,362.8,615.8,365.4,612.4,365.4 M612.4,350.3c-4.8,0-9.3,3.2-9.3,8.7c0,5.5,4.5,8.7,9.3,8.7c4.8,0,9.4-3.2,9.4-8.7
		C621.7,353.5,617.2,350.3,612.4,350.3"/>
	<path class="st0" d="M83.9,331.8c-2.7,8.4-8.4,14.9-18,14.9c-15.2,0-15.8-11.6-13.6-23.9c3.1-16.9,11-25.6,21.5-25.6
		c9.3,0,14.3,5.2,13.5,14.4h28.3c1.7-22.6-11.4-35.8-39.2-35.8c-25.4,0-48.6,17.7-53.8,46.1c-5.2,28.5,9.7,46.3,39.8,46.3
		c24,0,43.3-13.6,50.1-36.3H83.9z"/>
</g>
<polygon class="st0" points="125.3,278 109.3,365.8 135.5,365.8 151.6,278 "/>
<g>
	<path class="st0" d="M186.4,315.6c6.2,0,10.7,5.2,9.6,11.1h-23.9C173.3,319.8,178.5,315.6,186.4,315.6 M180.4,352.2
		c-6.9,0-12.1-5-10.7-12.6h50.1c4.6-23.2-7.2-39.5-31.7-39.5c-21.2,0-40,13.4-43.8,34.4c-3.9,21.5,10.4,33.2,31.6,33.2
		c15.4,0,33-5.2,40.5-21.1h-25.1C188.7,350.3,184.6,352.2,180.4,352.2"/>
	<path class="st0" d="M253.6,353.3c-5.2,0-7.9-2.2-7.3-5.4c1.5-8.3,12.5-6.4,21.8-10.4C267.1,346.3,262.8,353.3,253.6,353.3
		 M296.4,326.6c2.8-15.2,2.9-26.5-28.4-26.5c-26.1,0-37.6,7.9-40,21.5h25.3c1.6-5.5,6.7-6.2,10.4-6.2c2.8,0,8.5,0.6,7.6,5.2
		c-2.2,11.9-46.9-1.2-52.2,27.8c-2.4,13.3,7.6,19.3,20.1,19.3c9.8,0,17.8-1.9,26.5-8.7l0,6.8h27.2l0.2-1.2c-2.9-2.7-2.7-4.5-2-8.2
		L296.4,326.6z"/>
	<path class="st0" d="M330.6,314.8h-0.3l2.4-12.9h-23.9l-11.7,63.9h26.3l4-22.1c2.5-13.8,8.8-18.7,19.6-18.7c1.8,0,3.6,0.5,5.3,0.7
		l4.6-25.4c-1.1-0.1-2.2-0.4-3.3-0.4C343.4,300.1,336.1,304.9,330.6,314.8"/>
	<path class="st0" d="M423.8,321.4c-2.7,14.5-9.7,25.2-22.5,25.2c-14.3,0-15.3-14-13.2-25.2c2-11.1,8.5-24.3,22-24.3
		C423.2,296.8,425.9,309.5,423.8,321.4 M414.2,275.7c-28.3,0-50.9,17.9-55.9,45.5c-5.5,29.9,10.5,46.9,39,46.9
		c26.9,0,50.8-16.8,56.2-46.7C457.8,298.3,446.6,275.7,414.2,275.7"/>
	<path class="st0" d="M508.5,300.1c-10,0-17.2,4.2-24.5,11.8l1.8-10h-24l-11.7,63.9h26.3l5.9-32.5c1.5-8.2,4.5-13.2,12.6-13.2
		c7.4,0,8.2,5.6,7,11.9l-6.2,33.8h26.3l7-38.3C532.3,310,525.9,300.1,508.5,300.1"/>
	<path class="st0" d="M573.6,315.6c6.2,0,10.7,5.2,9.6,11.1h-23.9C560.6,319.8,565.8,315.6,573.6,315.6 M578.5,346.6
		c-2.6,3.8-6.7,5.6-10.9,5.6c-6.9,0-12.1-5-10.7-12.6h50.1c4.6-23.2-7.2-39.5-31.7-39.5c-21.2,0-40,13.4-43.8,34.4
		c-3.9,21.4,10.4,33.2,31.6,33.2c15.4,0,33-5.2,40.5-21.1H578.5z"/>
</g>
</svg>
